DataType=double
version=3
OpenSimVersion=4.5-2023-11-26-efcdfd3eb
endheader
time	EMG01_right_gast_med	EMG02_right_glut_max	EMG03_left_gast_med	EMG04_left_glut_max	EMG05_right_glut_med	EMG06_right_bic_fem	EMG07_right_rect_fem	EMG08_right_vast_lat	EMG09_right_vast_med	EMG10_right_tens_fasc_lat	EMG11_left_glut_med	EMG12_left_bic_fem	EMG13_left_rect_fem	EMG14_left_vast_lat	EMG15_left_vast_med	EMG16_left_tens_fasc_lat
0.53	132.6292177236216	-1.401672202292407	7.347725447096777	43.94511296191285	53.75961249126835	18.49371863200599	5.691007960527778	3.8254456960674	6.733794409877004	4.963549793834672	14.00608918853614	21.72453381566693	10.72883777888716	22.16970361317433	24.23053196079656	31.90117493484205
0.54	129.648630615848	-0.4384706434110818	8.140351734849943	42.94214701229546	60.51898907662536	18.28989133835925	6.113924152626355	4.116677266589342	7.096725386312095	5.901893531393716	14.55369353016276	22.26673127272121	11.50772382040545	23.50127868884121	27.6181428054286	33.89566767384784
0.55	126.1735115034417	0.7717654427366933	8.978026138923253	42.06610981921432	67.73292208197068	18.04585755966766	6.544554379851682	4.448514482040479	7.642443490050456	7.033434649440365	15.09876503553593	22.73068123564748	12.28104211535245	24.80854308911306	31.17081124753696	36.20080463694757
0.5600000000000001	122.2313856101464	2.226262962431242	9.857171504866368	41.31697024092563	75.32921333803763	17.76182163416711	6.977397909595223	4.817996933931581	8.355552921174143	8.350015617289824	15.63842362227756	23.11190070284309	13.0413624429686	26.07822218670437	34.8628491776002	38.81545632729803
0.57	117.8553618274204	3.920127349830716	10.77443875380538	40.69348245541413	83.22943889825865	17.43907350036116	7.406968314691491	5.221836749918389	9.219390100862499	9.842379220537026	16.16970168156363	23.40680148757858	13.78116705214167	27.29714960278451	38.66569437580289	41.73488952777834
0.58	113.0836637870528	5.846235585503126	11.72681344207377	40.1932293000979	91.34964954822114	17.07991112247198	7.827866106884001	5.65641442609126	10.21615433075099	11.50016556673448	16.68956718891374	23.61274486717254	14.49296172024583	28.45245429150628	42.54815931808419	44.95069585839893
0.59	107.9590559412479	7.995143796337977	12.71172237711112	39.81267488226329	99.6011971092976	16.68754921309603	8.23485014682681	6.117778105232137	11.32704723139209	13.31190812424981	17.19495053994205	23.72807798472155	15.16939129722532	29.5317440623785	46.4767362845362	48.45075988782776
0.6	102.528172739139	10.35501447346764	13.72713781759401	39.54722642954813	107.8916865248391	16.26601844171063	8.622906282823354	6.601647596542725	12.53242152894466	15.26503194710377	17.68277490750599	23.75215189754168	15.80335762681155	30.52328204607248	50.41595710028911	52.21926902844783
0.61	96.84076324072286	12.91156841931739	14.77167656526285	39.39130485321021	116.1260496054658	15.82005936750818	8.987311468326839	7.103424293927682	13.81193955401868	17.34585752483429	18.1499895968106	23.68532209675682	16.38813742530744	31.4161526504363	54.32880457883783	56.23676687867042
0.62	90.94886884878211	15.64806653357321	15.84469124823898	39.33842315911544	124.2077315475513	15.35501502922231	9.32369154285694	7.618207973865201	15.14474166864346	19.53961369195297	18.59360562015386	23.52893300034885	16.91749756702603	32.20041384340657	58.17717150378859	60.48025111722799
0.63	84.90595699641143	18.54532644477657	16.94635121744286	39.38127169684622	132.0399760670931	14.87672560801325	9.628071083691474	8.1408212556903	16.50962479120902	21.83046276909335	19.01073263589242	23.28528827426022	17.38580537759801	32.86723335310308	61.92236170095209	64.92331694875845
0.64	78.7660368350015	21.58177874662943	18.07771048272704	39.51180901060323	139.5271894280988	14.39142796588838	9.896914315521512	8.665842315352212	17.88523122181105	24.20154072377664	19.39861648557476	22.95760879335007	17.78813181830747	33.40900757630825	65.5256263130435	69.53634759519014
0.65	72.58278339787289	24.73356716275519	19.24075983470618	39.72135654736183	146.5763580832431	13.90566221197303	10.1271568762919	9.187646284398035	19.25024797730988	26.63501468846085	19.7546767146468	22.54997967646763	18.12034558502129	33.81946314036909	68.94872686223887	74.2867539063498
0.66	66.40869482244827	27.97469629558126	20.43845984806272	40.0006947900747	153.0984894705296	13.42618680516741	10.31622899216055	9.700455632186877	20.58361672816804	29.11215957873678	20.07654352128574	22.06728732324255	18.37919607248961	34.09374147979515	72.15451528025913	79.13926510147104
0.67	60.29430389723188	31.2772296802335	21.67475118677024	40.34015785384911	159.0100413615045	12.95990309848616	10.46207106619974	10.19839966399168	21.86475416442628	31.6134547896951	20.36209344810673	21.51514699675309	18.56238304154346	34.22846625862634	75.10751985214549	84.05627159324943
0.68	54.28746126100635	34.61153967170148	22.95453894298037	40.72972358907433	164.2343030861454	12.51378970108679	10.56314280158217	10.67558301370424	23.0737822230511	34.11870115683854	20.60948292138607	20.89982145722587	18.66861080851216	34.22179251628489	77.77452482044083	88.99821889751202
0.6899999999999999	48.43270362281332	37.94660929396949	24.28364892616158	41.15909694540147	168.7026928831013	12.09484659450347	10.61842688289944	11.12616267316758	24.19176707896176	36.60715774385674	20.81717868229487	20.22813155050213	18.69762481600985	34.07343584072421	80.12513030450059	93.92404924314141
